<svg version="1.1" xmlns="http://www.w3.org/2000/svg" xmlns:xlink="http://www.w3.org/1999/xlink" width="916" height="460"><defs></defs><g><g transform="translate(2,2) scale(1,1)"><path fill="none" stroke="#000000" d="M 8 8 L 904 8 L 904 448 L 8 448 L 8 8" stroke-miterlimit="10"></path></g><g transform="translate(2,2) scale(1,1)"><path fill="#ffffff" stroke="none" d="M 8 8 L 8 30 L 197 30 L 208 19 L 208 8 L 8 8"></path></g><g transform="translate(2,2) scale(1,1)"><path fill="none" stroke="#000000" d="M 8 8 L 8 30 L 197 30 L 208 19 L 208 8 L 8 8 L 8 8" stroke-miterlimit="10"></path></g><g transform="translate(2,2) scale(1,1)"><g><path fill="none" stroke="none"></path><text fill="#000000" stroke="none" font-family="Arial" font-size="13px" font-style="normal" font-weight="normal" text-decoration="none" x="79" y="25.5">SequenceDiagram1</text></g></g><g transform="translate(2,2) scale(1,1)"><g><path fill="none" stroke="none"></path><text fill="#000000" stroke="none" font-family="Arial" font-size="13px" font-style="normal" font-weight="bold" text-decoration="none" x="13" y="25.5">interaction</text></g></g><g transform="translate(2,2) scale(1,1)"><rect fill="#C0C0C0" stroke="none" x="47" y="47" width="161" height="39" opacity="0.2"></rect></g><g transform="translate(2,2) scale(1,1)"><rect fill="#ffffff" stroke="none" x="40" y="40" width="161" height="39"></rect></g><g transform="translate(2,2) scale(1,1)"><path fill="none" stroke="#000000" d="M 40 40 L 201 40 L 201 79 L 40 79 L 40 40 Z Z" stroke-miterlimit="10"></path></g><g transform="translate(2,2) scale(1,1)"><g><path fill="none" stroke="none"></path><text fill="#000000" stroke="none" font-family="Arial" font-size="13px" font-style="normal" font-weight="bold" text-decoration="none" x="55.5" y="59.5">ViewPendingRequests</text></g></g><g transform="translate(2,2) scale(1,1)"><path fill="none" stroke="#000000" d="M 121.5 80 L 121.5 448" stroke-miterlimit="10" stroke-dasharray="3"></path></g><g transform="translate(2,2) scale(1,1)"><rect fill="#C0C0C0" stroke="none" x="263" y="47" width="112" height="39" opacity="0.2"></rect></g><g transform="translate(2,2) scale(1,1)"><rect fill="#ffffff" stroke="none" x="256" y="40" width="112" height="39"></rect></g><g transform="translate(2,2) scale(1,1)"><path fill="none" stroke="#000000" d="M 256 40 L 368 40 L 368 79 L 256 79 L 256 40 Z Z" stroke-miterlimit="10"></path></g><g transform="translate(2,2) scale(1,1)"><g><path fill="none" stroke="none"></path><text fill="#000000" stroke="none" font-family="Arial" font-size="13px" font-style="normal" font-weight="bold" text-decoration="none" x="274.5" y="59.5">CtrlRequests</text></g></g><g transform="translate(2,2) scale(1,1)"><path fill="none" stroke="#000000" d="M 313.5 80 L 313.5 448" stroke-miterlimit="10" stroke-dasharray="3"></path></g><g transform="translate(2,2) scale(1,1)"><rect fill="#C0C0C0" stroke="none" x="431" y="47" width="132" height="39" opacity="0.2"></rect></g><g transform="translate(2,2) scale(1,1)"><rect fill="#ffffff" stroke="none" x="424" y="40" width="132" height="39"></rect></g><g transform="translate(2,2) scale(1,1)"><path fill="none" stroke="#000000" d="M 424 40 L 556 40 L 556 79 L 424 79 L 424 40 Z Z" stroke-miterlimit="10"></path></g><g transform="translate(2,2) scale(1,1)"><g><path fill="none" stroke="none"></path><text fill="#000000" stroke="none" font-family="Arial" font-size="13px" font-style="normal" font-weight="bold" text-decoration="none" x="443.5" y="59.5">RequestsRouter</text></g></g><g transform="translate(2,2) scale(1,1)"><path fill="none" stroke="#000000" d="M 491.5 80 L 491.5 448" stroke-miterlimit="10" stroke-dasharray="3"></path></g><g transform="translate(2,2) scale(1,1)"><rect fill="#C0C0C0" stroke="none" x="607" y="47" width="120" height="39" opacity="0.2"></rect></g><g transform="translate(2,2) scale(1,1)"><rect fill="#ffffff" stroke="none" x="600" y="40" width="120" height="39"></rect></g><g transform="translate(2,2) scale(1,1)"><path fill="none" stroke="#000000" d="M 600 40 L 720 40 L 720 79 L 600 79 L 600 40 Z Z" stroke-miterlimit="10"></path></g><g transform="translate(2,2) scale(1,1)"><g><path fill="none" stroke="none"></path><text fill="#000000" stroke="none" font-family="Arial" font-size="13px" font-style="normal" font-weight="bold" text-decoration="none" x="621" y="59.5">RoleAccepter</text></g></g><g transform="translate(2,2) scale(1,1)"><path fill="none" stroke="#000000" d="M 661.5 80 L 661.5 448" stroke-miterlimit="10" stroke-dasharray="3"></path></g><g transform="translate(2,2) scale(1,1)"><rect fill="#C0C0C0" stroke="none" x="783" y="47" width="74" height="39" opacity="0.2"></rect></g><g transform="translate(2,2) scale(1,1)"><rect fill="#ffffff" stroke="none" x="776" y="40" width="74" height="39"></rect></g><g transform="translate(2,2) scale(1,1)"><path fill="none" stroke="#000000" d="M 776 40 L 850 40 L 850 79 L 776 79 L 776 40 Z Z" stroke-miterlimit="10"></path></g><g transform="translate(2,2) scale(1,1)"><g><path fill="none" stroke="none"></path><text fill="#000000" stroke="none" font-family="Arial" font-size="13px" font-style="normal" font-weight="bold" text-decoration="none" x="789.5" y="59.5">RoleList</text></g></g><g transform="translate(2,2) scale(1,1)"><path fill="none" stroke="#000000" d="M 814.5 80 L 814.5 448" stroke-miterlimit="10" stroke-dasharray="3"></path></g><g transform="translate(2,2) scale(1,1)"><path fill="none" stroke="#000000" d="M 121 120 L 306 120" stroke-miterlimit="10"></path></g><g transform="translate(2,2) scale(1,1)"><path fill="#000000" stroke="none" d="M 295.83732514237585 124.20951775601598 L 306 120 L 295.83732514237585 115.79048224398402"></path></g><g transform="translate(2,2) scale(1,1)"><path fill="none" stroke="#000000" d="M 295.83732514237585 124.20951775601598 L 306 120 L 295.83732514237585 115.79048224398402 L 295.83732514237585 124.20951775601598" stroke-miterlimit="10"></path></g><g transform="translate(2,2) scale(1,1)"><g><path fill="none" stroke="none"></path><text fill="#000000" stroke="none" font-family="Arial" font-size="13px" font-style="normal" font-weight="normal" text-decoration="none" x="138" y="117">1 : accept(mailOfRequest)</text></g></g><g transform="translate(2,2) scale(1,1)"><rect fill="#ffffff" stroke="none" x="306" y="120" width="13" height="216"></rect></g><g transform="translate(2,2) scale(1,1)"><path fill="none" stroke="#000000" d="M 306 120 L 319 120 L 319 336 L 306 336 L 306 120 Z Z" stroke-miterlimit="10"></path></g><g transform="translate(2,2) scale(1,1)"><path fill="none" stroke="#000000" d="M 319 168 L 484 168" stroke-miterlimit="10"></path></g><g transform="translate(2,2) scale(1,1)"><path fill="#000000" stroke="none" d="M 473.83732514237585 172.209517756016 L 484 168 L 473.83732514237585 163.790482243984"></path></g><g transform="translate(2,2) scale(1,1)"><path fill="none" stroke="#000000" d="M 473.83732514237585 172.209517756016 L 484 168 L 473.83732514237585 163.790482243984 L 473.83732514237585 172.209517756016" stroke-miterlimit="10"></path></g><g transform="translate(2,2) scale(1,1)"><g><path fill="none" stroke="none"></path><text fill="#000000" stroke="none" font-family="Arial" font-size="13px" font-style="normal" font-weight="normal" text-decoration="none" x="326" y="165">2 : accept(mailOfRequest)</text></g></g><g transform="translate(2,2) scale(1,1)"><rect fill="#ffffff" stroke="none" x="484" y="168" width="13" height="56"></rect></g><g transform="translate(2,2) scale(1,1)"><path fill="none" stroke="#000000" d="M 484 168 L 497 168 L 497 224 L 484 224 L 484 168 Z Z" stroke-miterlimit="10"></path></g><g transform="translate(2,2) scale(1,1)"><path fill="none" stroke="#000000" d="M 497 210 L 654 210" stroke-miterlimit="10"></path></g><g transform="translate(2,2) scale(1,1)"><path fill="#000000" stroke="none" d="M 643.8373251423759 214.209517756016 L 654 210 L 643.8373251423758 205.790482243984"></path></g><g transform="translate(2,2) scale(1,1)"><path fill="none" stroke="#000000" d="M 643.8373251423759 214.209517756016 L 654 210 L 643.8373251423758 205.790482243984 L 643.8373251423759 214.209517756016" stroke-miterlimit="10"></path></g><g transform="translate(2,2) scale(1,1)"><g><path fill="none" stroke="none"></path><text fill="#000000" stroke="none" font-family="Arial" font-size="13px" font-style="normal" font-weight="normal" text-decoration="none" x="515" y="207">3 : forwardTo(bundle)</text></g></g><g transform="translate(2,2) scale(1,1)"><rect fill="#ffffff" stroke="none" x="654" y="210" width="13" height="38"></rect></g><g transform="translate(2,2) scale(1,1)"><path fill="none" stroke="#000000" d="M 654 210 L 667 210 L 667 248 L 654 248 L 654 210 Z Z" stroke-miterlimit="10"></path></g><g transform="translate(2,2) scale(1,1)"><path fill="none" stroke="#000000" d="M 667 227 L 807 227" stroke-miterlimit="10"></path></g><g transform="translate(2,2) scale(1,1)"><path fill="#000000" stroke="none" d="M 796.8373251423759 231.209517756016 L 807 227 L 796.8373251423758 222.790482243984"></path></g><g transform="translate(2,2) scale(1,1)"><path fill="none" stroke="#000000" d="M 796.8373251423759 231.209517756016 L 807 227 L 796.8373251423758 222.790482243984 L 796.8373251423759 231.209517756016" stroke-miterlimit="10"></path></g><g transform="translate(2,2) scale(1,1)"><g><path fill="none" stroke="none"></path><text fill="#000000" stroke="none" font-family="Arial" font-size="13px" font-style="normal" font-weight="normal" text-decoration="none" x="676" y="224">4 : accept(email,role)</text></g></g><g transform="translate(2,2) scale(1,1)"><rect fill="#ffffff" stroke="none" x="807" y="227" width="13" height="101"></rect></g><g transform="translate(2,2) scale(1,1)"><path fill="none" stroke="#000000" d="M 807 227 L 820 227 L 820 328 L 807 328 L 807 227 Z Z" stroke-miterlimit="10"></path></g><g transform="translate(2,2) scale(1,1)"><path fill="none" stroke="#000000" d="M 807 320 L 319 320" stroke-miterlimit="10" stroke-dasharray="3"></path></g><g transform="translate(2,2) scale(1,1)"><path fill="none" stroke="#000000" d="M 329.16267485762415 315.790482243984 L 319 320 L 329.16267485762415 324.209517756016" stroke-miterlimit="10"></path></g><g transform="translate(2,2) scale(1,1)"><g><path fill="none" stroke="none"></path><text fill="#000000" stroke="none" font-family="Arial" font-size="13px" font-style="normal" font-weight="normal" text-decoration="none" x="553" y="337">5 : </text></g></g></g></svg>