<svg version="1.1" xmlns="http://www.w3.org/2000/svg" xmlns:xlink="http://www.w3.org/1999/xlink" width="1044" height="614"><defs></defs><g><g transform="translate(-38,10) scale(1,1)"><path fill="none" stroke="#000000" d="M 48 0 L 1072 0 L 1072 594 L 48 594 L 48 0" stroke-miterlimit="10"></path></g><g transform="translate(-38,10) scale(1,1)"><path fill="#ffffff" stroke="none" d="M 48 0 L 48 22 L 155 22 L 166 11 L 166 0 L 48 0"></path></g><g transform="translate(-38,10) scale(1,1)"><path fill="none" stroke="#000000" d="M 48 0 L 48 22 L 155 22 L 166 11 L 166 0 L 48 0 L 48 0" stroke-miterlimit="10"></path></g><g transform="translate(-38,10) scale(1,1)"><g><path fill="none" stroke="none"></path><text fill="#000000" stroke="none" font-family="Arial" font-size="13px" font-style="normal" font-weight="normal" text-decoration="none" x="119" y="17.5">Login</text></g></g><g transform="translate(-38,10) scale(1,1)"><g><path fill="none" stroke="none"></path><text fill="#000000" stroke="none" font-family="Arial" font-size="13px" font-style="normal" font-weight="bold" text-decoration="none" x="53" y="17.5">interaction</text></g></g><g transform="translate(-38,10) scale(1,1)"><path fill="none" stroke="#000000" d="M 168 224 L 816 224 L 816 352 L 168 352 L 168 224" stroke-miterlimit="10"></path></g><g transform="translate(-38,10) scale(1,1)"><path fill="#ffffff" stroke="none" d="M 168 224 L 168 246 L 275 246 L 286 235 L 286 224 L 168 224"></path></g><g transform="translate(-38,10) scale(1,1)"><path fill="none" stroke="#000000" d="M 168 224 L 168 246 L 275 246 L 286 235 L 286 224 L 168 224 L 168 224" stroke-miterlimit="10"></path></g><g transform="translate(-38,10) scale(1,1)"><g><path fill="none" stroke="none"></path><text fill="#000000" stroke="none" font-family="Arial" font-size="13px" font-style="normal" font-weight="normal" text-decoration="none" x="239" y="241.5">Login</text></g></g><g transform="translate(-38,10) scale(1,1)"><g><path fill="none" stroke="none"></path><text fill="#000000" stroke="none" font-family="Arial" font-size="13px" font-style="normal" font-weight="bold" text-decoration="none" x="173" y="241.5">interaction</text></g></g><g transform="translate(-38,10) scale(1,1)"><path fill="none" stroke="#000000" d="M 168 376 L 1000 376 L 1000 528 L 168 528 L 168 376" stroke-miterlimit="10"></path></g><g transform="translate(-38,10) scale(1,1)"><path fill="#ffffff" stroke="none" d="M 168 376 L 168 398 L 275 398 L 286 387 L 286 376 L 168 376"></path></g><g transform="translate(-38,10) scale(1,1)"><path fill="none" stroke="#000000" d="M 168 376 L 168 398 L 275 398 L 286 387 L 286 376 L 168 376 L 168 376" stroke-miterlimit="10"></path></g><g transform="translate(-38,10) scale(1,1)"><g><path fill="none" stroke="none"></path><text fill="#000000" stroke="none" font-family="Arial" font-size="13px" font-style="normal" font-weight="normal" text-decoration="none" x="239" y="393.5">Login</text></g></g><g transform="translate(-38,10) scale(1,1)"><g><path fill="none" stroke="none"></path><text fill="#000000" stroke="none" font-family="Arial" font-size="13px" font-style="normal" font-weight="bold" text-decoration="none" x="173" y="393.5">interaction</text></g></g><g transform="translate(-38,10) scale(1,1)"><rect fill="#C0C0C0" stroke="none" x="103" y="47" width="71.736328125" height="39" opacity="0.2"></rect></g><g transform="translate(-38,10) scale(1,1)"><rect fill="#ffffff" stroke="none" x="96" y="40" width="71.736328125" height="39"></rect></g><g transform="translate(-38,10) scale(1,1)"><path fill="none" stroke="#000000" d="M 96 40 L 167.736328125 40 L 167.736328125 79 L 96 79 L 96 40 Z Z" stroke-miterlimit="10"></path></g><g transform="translate(-38,10) scale(1,1)"><g><path fill="none" stroke="none"></path><text fill="#000000" stroke="none" font-family="Arial" font-size="13px" font-style="normal" font-weight="bold" text-decoration="none" x="116.3681640625" y="59.5">Login</text></g></g><g transform="translate(-38,10) scale(1,1)"><path fill="none" stroke="#000000" d="M 132.5 80 L 132.5 592" stroke-miterlimit="10" stroke-dasharray="3"></path></g><g transform="translate(-38,10) scale(1,1)"><rect fill="#C0C0C0" stroke="none" x="287" y="47" width="77" height="39" opacity="0.2"></rect></g><g transform="translate(-38,10) scale(1,1)"><rect fill="#ffffff" stroke="none" x="280" y="40" width="77" height="39"></rect></g><g transform="translate(-38,10) scale(1,1)"><path fill="none" stroke="#000000" d="M 280 40 L 357 40 L 357 79 L 280 79 L 280 40 Z Z" stroke-miterlimit="10"></path></g><g transform="translate(-38,10) scale(1,1)"><g><path fill="none" stroke="none"></path><text fill="#000000" stroke="none" font-family="Arial" font-size="13px" font-style="normal" font-weight="bold" text-decoration="none" x="293" y="59.5">CtrlLogin</text></g></g><g transform="translate(-38,10) scale(1,1)"><path fill="none" stroke="#000000" d="M 319.5 80 L 319.5 592" stroke-miterlimit="10" stroke-dasharray="3"></path></g><g transform="translate(-38,10) scale(1,1)"><rect fill="#C0C0C0" stroke="none" x="471" y="47" width="153" height="39" opacity="0.2"></rect></g><g transform="translate(-38,10) scale(1,1)"><rect fill="#ffffff" stroke="none" x="464" y="40" width="153" height="39"></rect></g><g transform="translate(-38,10) scale(1,1)"><path fill="none" stroke="#000000" d="M 464 40 L 617 40 L 617 79 L 464 79 L 464 40 Z Z" stroke-miterlimit="10"></path></g><g transform="translate(-38,10) scale(1,1)"><g><path fill="none" stroke="none"></path><text fill="#000000" stroke="none" font-family="Arial" font-size="13px" font-style="normal" font-weight="bold" text-decoration="none" x="480" y="59.5">AuthenticationRouter</text></g></g><g transform="translate(-38,10) scale(1,1)"><path fill="none" stroke="#000000" d="M 541.5 80 L 541.5 592" stroke-miterlimit="10" stroke-dasharray="3"></path></g><g transform="translate(-38,10) scale(1,1)"><rect fill="#C0C0C0" stroke="none" x="719" y="47" width="76" height="39" opacity="0.2"></rect></g><g transform="translate(-38,10) scale(1,1)"><rect fill="#ffffff" stroke="none" x="712" y="40" width="76" height="39"></rect></g><g transform="translate(-38,10) scale(1,1)"><path fill="none" stroke="#000000" d="M 712 40 L 788 40 L 788 79 L 712 79 L 712 40 Z Z" stroke-miterlimit="10"></path></g><g transform="translate(-38,10) scale(1,1)"><g><path fill="none" stroke="none"></path><text fill="#000000" stroke="none" font-family="Arial" font-size="13px" font-style="normal" font-weight="bold" text-decoration="none" x="725.5" y="59.5">LoggerIn</text></g></g><g transform="translate(-38,10) scale(1,1)"><path fill="none" stroke="#000000" d="M 751.5 80 L 751.5 592" stroke-miterlimit="10" stroke-dasharray="3"></path></g><g transform="translate(-38,10) scale(1,1)"><rect fill="#C0C0C0" stroke="none" x="903" y="47" width="140" height="39" opacity="0.2"></rect></g><g transform="translate(-38,10) scale(1,1)"><rect fill="#ffffff" stroke="none" x="896" y="40" width="140" height="39"></rect></g><g transform="translate(-38,10) scale(1,1)"><path fill="none" stroke="#000000" d="M 896 40 L 1036 40 L 1036 79 L 896 79 L 896 40 Z Z" stroke-miterlimit="10"></path></g><g transform="translate(-38,10) scale(1,1)"><g><path fill="none" stroke="none"></path><text fill="#000000" stroke="none" font-family="Arial" font-size="13px" font-style="normal" font-weight="bold" text-decoration="none" x="911" y="59.5">AuthenticationData</text></g></g><g transform="translate(-38,10) scale(1,1)"><path fill="none" stroke="#000000" d="M 967.5 80 L 967.5 592" stroke-miterlimit="10" stroke-dasharray="3"></path></g><g transform="translate(-38,10) scale(1,1)"><path fill="none" stroke="#000000" d="M 132 128 L 312 128" stroke-miterlimit="10"></path></g><g transform="translate(-38,10) scale(1,1)"><path fill="#000000" stroke="none" d="M 301.83732514237585 132.209517756016 L 312 128 L 301.83732514237585 123.79048224398402"></path></g><g transform="translate(-38,10) scale(1,1)"><path fill="none" stroke="#000000" d="M 301.83732514237585 132.209517756016 L 312 128 L 301.83732514237585 123.79048224398402 L 301.83732514237585 132.209517756016" stroke-miterlimit="10"></path></g><g transform="translate(-38,10) scale(1,1)"><g><path fill="none" stroke="none"></path><text fill="#000000" stroke="none" font-family="Arial" font-size="13px" font-style="normal" font-weight="normal" text-decoration="none" x="129" y="125">1 : checkLogin(email, password)</text></g></g><g transform="translate(-38,10) scale(1,1)"><rect fill="#ffffff" stroke="none" x="312" y="128" width="13" height="192"></rect></g><g transform="translate(-38,10) scale(1,1)"><path fill="none" stroke="#000000" d="M 312 128 L 325 128 L 325 320 L 312 320 L 312 128 Z Z" stroke-miterlimit="10"></path></g><g transform="translate(-38,10) scale(1,1)"><path fill="none" stroke="#000000" d="M 325 168 L 534 168" stroke-miterlimit="10"></path></g><g transform="translate(-38,10) scale(1,1)"><path fill="#000000" stroke="none" d="M 523.8373251423759 172.209517756016 L 534 168 L 523.8373251423758 163.790482243984"></path></g><g transform="translate(-38,10) scale(1,1)"><path fill="none" stroke="#000000" d="M 523.8373251423759 172.209517756016 L 534 168 L 523.8373251423758 163.790482243984 L 523.8373251423759 172.209517756016" stroke-miterlimit="10"></path></g><g transform="translate(-38,10) scale(1,1)"><g><path fill="none" stroke="none"></path><text fill="#000000" stroke="none" font-family="Arial" font-size="13px" font-style="normal" font-weight="normal" text-decoration="none" x="335" y="156">2 : checkLogin(email, password)</text></g></g><g transform="translate(-38,10) scale(1,1)"><rect fill="#ffffff" stroke="none" x="534" y="168" width="13" height="152"></rect></g><g transform="translate(-38,10) scale(1,1)"><path fill="none" stroke="#000000" d="M 534 168 L 547 168 L 547 320 L 534 320 L 534 168 Z Z" stroke-miterlimit="10"></path></g><g transform="translate(-38,10) scale(1,1)"><path fill="none" stroke="#000000" d="M 547 192 L 744 192" stroke-miterlimit="10"></path></g><g transform="translate(-38,10) scale(1,1)"><path fill="#000000" stroke="none" d="M 733.8373251423759 196.209517756016 L 744 192 L 733.8373251423758 187.790482243984"></path></g><g transform="translate(-38,10) scale(1,1)"><path fill="none" stroke="#000000" d="M 733.8373251423759 196.209517756016 L 744 192 L 733.8373251423758 187.790482243984 L 733.8373251423759 196.209517756016" stroke-miterlimit="10"></path></g><g transform="translate(-38,10) scale(1,1)"><g><path fill="none" stroke="none"></path><text fill="#000000" stroke="none" font-family="Arial" font-size="13px" font-style="normal" font-weight="normal" text-decoration="none" x="562" y="181">3 : forwardTo(bundle) : JSON</text></g></g><g transform="translate(-38,10) scale(1,1)"><rect fill="#ffffff" stroke="none" x="744" y="192" width="13" height="360"></rect></g><g transform="translate(-38,10) scale(1,1)"><path fill="none" stroke="#000000" d="M 744 192 L 757 192 L 757 552 L 744 552 L 744 192 Z Z" stroke-miterlimit="10"></path></g><g transform="translate(-38,10) scale(1,1)"><path fill="none" stroke="#000000" d="M 744 272 L 547 272" stroke-miterlimit="10" stroke-dasharray="3"></path></g><g transform="translate(-38,10) scale(1,1)"><path fill="none" stroke="#000000" d="M 557.1626748576241 267.790482243984 L 547 272 L 557.1626748576241 276.209517756016" stroke-miterlimit="10"></path></g><g transform="translate(-38,10) scale(1,1)"><g><path fill="none" stroke="none"></path><text fill="#000000" stroke="none" font-family="Arial" font-size="13px" font-style="normal" font-weight="normal" text-decoration="none" x="592" y="289">4 : [res] : [400,err]</text></g></g><g transform="translate(-38,10) scale(1,1)"><path fill="none" stroke="#000000" d="M 534 296 L 325 296" stroke-miterlimit="10" stroke-dasharray="3"></path></g><g transform="translate(-38,10) scale(1,1)"><path fill="none" stroke="#000000" d="M 335.16267485762415 291.790482243984 L 325 296 L 335.16267485762415 300.209517756016" stroke-miterlimit="10"></path></g><g transform="translate(-38,10) scale(1,1)"><g><path fill="none" stroke="none"></path><text fill="#000000" stroke="none" font-family="Arial" font-size="13px" font-style="normal" font-weight="normal" text-decoration="none" x="376" y="313">5 : [res] : [400,err]</text></g></g><g transform="translate(-38,10) scale(1,1)"><path fill="none" stroke="#000000" d="M 757 405 L 960 405" stroke-miterlimit="10"></path></g><g transform="translate(-38,10) scale(1,1)"><path fill="#000000" stroke="none" d="M 949.8373251423759 409.209517756016 L 960 405 L 949.8373251423758 400.790482243984"></path></g><g transform="translate(-38,10) scale(1,1)"><path fill="none" stroke="#000000" d="M 949.8373251423759 409.209517756016 L 960 405 L 949.8373251423758 400.790482243984 L 949.8373251423759 409.209517756016" stroke-miterlimit="10"></path></g><g transform="translate(-38,10) scale(1,1)"><g><path fill="none" stroke="none"></path><text fill="#000000" stroke="none" font-family="Arial" font-size="13px" font-style="normal" font-weight="normal" text-decoration="none" x="761" y="402">6 : login(email, password) : JSON</text></g></g><g transform="translate(-38,10) scale(1,1)"><rect fill="#ffffff" stroke="none" x="960" y="405" width="13" height="57"></rect></g><g transform="translate(-38,10) scale(1,1)"><path fill="none" stroke="#000000" d="M 960 405 L 973 405 L 973 462 L 960 462 L 960 405 Z Z" stroke-miterlimit="10"></path></g><g transform="translate(-38,10) scale(1,1)"><path fill="none" stroke="#000000" d="M 960 455 L 757 455" stroke-miterlimit="10" stroke-dasharray="3"></path></g><g transform="translate(-38,10) scale(1,1)"><path fill="none" stroke="#000000" d="M 767.1626748576241 450.790482243984 L 757 455 L 767.1626748576241 459.209517756016" stroke-miterlimit="10"></path></g><g transform="translate(-38,10) scale(1,1)"><g><path fill="none" stroke="none"></path><text fill="#000000" stroke="none" font-family="Arial" font-size="13px" font-style="normal" font-weight="normal" text-decoration="none" x="831" y="472">7 : JSON</text></g></g><g transform="translate(-38,10) scale(1,1)"><path fill="none" stroke="#000000" d="M 744 474 L 325 474" stroke-miterlimit="10"></path></g><g transform="translate(-38,10) scale(1,1)"><path fill="#000000" stroke="none" d="M 335.16267485762415 469.790482243984 L 325 474 L 335.16267485762415 478.209517756016"></path></g><g transform="translate(-38,10) scale(1,1)"><path fill="none" stroke="#000000" d="M 335.16267485762415 469.790482243984 L 325 474 L 335.16267485762415 478.209517756016 L 335.16267485762415 469.790482243984" stroke-miterlimit="10"></path></g><g transform="translate(-38,10) scale(1,1)"><g><path fill="none" stroke="none"></path><text fill="#000000" stroke="none" font-family="Arial" font-size="13px" font-style="normal" font-weight="normal" text-decoration="none" x="478" y="491">8 : [res] : [200:info]</text></g></g><g transform="translate(-38,10) scale(1,1)"><rect fill="#ffffff" stroke="none" x="312" y="474" width="13" height="28"></rect></g><g transform="translate(-38,10) scale(1,1)"><path fill="none" stroke="#000000" d="M 312 474 L 325 474 L 325 502 L 312 502 L 312 474 Z Z" stroke-miterlimit="10"></path></g></g></svg>