<svg version="1.1" xmlns="http://www.w3.org/2000/svg" xmlns:xlink="http://www.w3.org/1999/xlink" width="1324" height="615"><defs></defs><g><g transform="translate(-6,-3) scale(1,1)"><path fill="none" stroke="#000000" d="M 16 13 L 1320 13 L 1320 607 L 16 607 L 16 13" stroke-miterlimit="10"></path></g><g transform="translate(-6,-3) scale(1,1)"><path fill="#ffffff" stroke="none" d="M 16 13 L 16 35 L 140 35 L 151 24 L 151 13 L 16 13"></path></g><g transform="translate(-6,-3) scale(1,1)"><path fill="none" stroke="#000000" d="M 16 13 L 16 35 L 140 35 L 151 24 L 151 13 L 16 13 L 16 13" stroke-miterlimit="10"></path></g><g transform="translate(-6,-3) scale(1,1)"><g><path fill="none" stroke="none"></path><text fill="#000000" stroke="none" font-family="Arial" font-size="13px" font-style="normal" font-weight="normal" text-decoration="none" x="87" y="30.5">Register</text></g></g><g transform="translate(-6,-3) scale(1,1)"><g><path fill="none" stroke="none"></path><text fill="#000000" stroke="none" font-family="Arial" font-size="13px" font-style="normal" font-weight="bold" text-decoration="none" x="21" y="30.5">interaction</text></g></g><g transform="translate(-6,-3) scale(1,1)"><path fill="none" stroke="#000000" d="M 112 248 L 680 248 L 680 384 L 112 384 L 112 248" stroke-miterlimit="10"></path></g><g transform="translate(-6,-3) scale(1,1)"><path fill="#ffffff" stroke="none" d="M 112 248 L 112 270 L 236 270 L 247 259 L 247 248 L 112 248"></path></g><g transform="translate(-6,-3) scale(1,1)"><path fill="none" stroke="#000000" d="M 112 248 L 112 270 L 236 270 L 247 259 L 247 248 L 112 248 L 112 248" stroke-miterlimit="10"></path></g><g transform="translate(-6,-3) scale(1,1)"><g><path fill="none" stroke="none"></path><text fill="#000000" stroke="none" font-family="Arial" font-size="13px" font-style="normal" font-weight="normal" text-decoration="none" x="183" y="265.5">Register</text></g></g><g transform="translate(-6,-3) scale(1,1)"><g><path fill="none" stroke="none"></path><text fill="#000000" stroke="none" font-family="Arial" font-size="13px" font-style="normal" font-weight="bold" text-decoration="none" x="117" y="265.5">interaction</text></g></g><g transform="translate(-6,-3) scale(1,1)"><path fill="none" stroke="#000000" d="M 112 408 L 1000 408 L 1000 544 L 112 544 L 112 408" stroke-miterlimit="10"></path></g><g transform="translate(-6,-3) scale(1,1)"><path fill="#ffffff" stroke="none" d="M 112 408 L 112 430 L 236 430 L 247 419 L 247 408 L 112 408"></path></g><g transform="translate(-6,-3) scale(1,1)"><path fill="none" stroke="#000000" d="M 112 408 L 112 430 L 236 430 L 247 419 L 247 408 L 112 408 L 112 408" stroke-miterlimit="10"></path></g><g transform="translate(-6,-3) scale(1,1)"><g><path fill="none" stroke="none"></path><text fill="#000000" stroke="none" font-family="Arial" font-size="13px" font-style="normal" font-weight="normal" text-decoration="none" x="183" y="425.5">Register</text></g></g><g transform="translate(-6,-3) scale(1,1)"><g><path fill="none" stroke="none"></path><text fill="#000000" stroke="none" font-family="Arial" font-size="13px" font-style="normal" font-weight="bold" text-decoration="none" x="117" y="425.5">interaction</text></g></g><g transform="translate(-6,-3) scale(1,1)"><rect fill="#C0C0C0" stroke="none" x="47" y="47" width="95" height="39" opacity="0.2"></rect></g><g transform="translate(-6,-3) scale(1,1)"><rect fill="#ffffff" stroke="none" x="40" y="40" width="95" height="39"></rect></g><g transform="translate(-6,-3) scale(1,1)"><path fill="none" stroke="#000000" d="M 40 40 L 135 40 L 135 79 L 40 79 L 40 40 Z Z" stroke-miterlimit="10"></path></g><g transform="translate(-6,-3) scale(1,1)"><g><path fill="none" stroke="none"></path><text fill="#000000" stroke="none" font-family="Arial" font-size="13px" font-style="normal" font-weight="bold" text-decoration="none" x="53" y="59.5">Registration</text></g></g><g transform="translate(-6,-3) scale(1,1)"><path fill="none" stroke="#000000" d="M 88.5 80 L 88.5 608" stroke-miterlimit="10" stroke-dasharray="3"></path></g><g transform="translate(-6,-3) scale(1,1)"><rect fill="#C0C0C0" stroke="none" x="215" y="47" width="117.22998046875" height="39" opacity="0.2"></rect></g><g transform="translate(-6,-3) scale(1,1)"><rect fill="#ffffff" stroke="none" x="208" y="40" width="117.22998046875" height="39"></rect></g><g transform="translate(-6,-3) scale(1,1)"><path fill="none" stroke="#000000" d="M 208 40 L 325.22998046875 40 L 325.22998046875 79 L 208 79 L 208 40 Z Z" stroke-miterlimit="10"></path></g><g transform="translate(-6,-3) scale(1,1)"><g><path fill="none" stroke="none"></path><text fill="#000000" stroke="none" font-family="Arial" font-size="13px" font-style="normal" font-weight="bold" text-decoration="none" x="222.114990234375" y="59.5">CtrlRegistration</text></g></g><g transform="translate(-6,-3) scale(1,1)"><path fill="none" stroke="#000000" d="M 267.5 80 L 267.5 608" stroke-miterlimit="10" stroke-dasharray="3"></path></g><g transform="translate(-6,-3) scale(1,1)"><rect fill="#C0C0C0" stroke="none" x="383" y="47" width="153" height="39" opacity="0.2"></rect></g><g transform="translate(-6,-3) scale(1,1)"><rect fill="#ffffff" stroke="none" x="376" y="40" width="153" height="39"></rect></g><g transform="translate(-6,-3) scale(1,1)"><path fill="none" stroke="#000000" d="M 376 40 L 529 40 L 529 79 L 376 79 L 376 40 Z Z" stroke-miterlimit="10"></path></g><g transform="translate(-6,-3) scale(1,1)"><g><path fill="none" stroke="none"></path><text fill="#000000" stroke="none" font-family="Arial" font-size="13px" font-style="normal" font-weight="bold" text-decoration="none" x="392" y="59.5">AuthenticationRouter</text></g></g><g transform="translate(-6,-3) scale(1,1)"><path fill="none" stroke="#000000" d="M 453.5 80 L 453.5 608" stroke-miterlimit="10" stroke-dasharray="3"></path></g><g transform="translate(-6,-3) scale(1,1)"><rect fill="#C0C0C0" stroke="none" x="903" y="47" width="140" height="39" opacity="0.2"></rect></g><g transform="translate(-6,-3) scale(1,1)"><rect fill="#ffffff" stroke="none" x="896" y="40" width="140" height="39"></rect></g><g transform="translate(-6,-3) scale(1,1)"><path fill="none" stroke="#000000" d="M 896 40 L 1036 40 L 1036 79 L 896 79 L 896 40 Z Z" stroke-miterlimit="10"></path></g><g transform="translate(-6,-3) scale(1,1)"><g><path fill="none" stroke="none"></path><text fill="#000000" stroke="none" font-family="Arial" font-size="13px" font-style="normal" font-weight="bold" text-decoration="none" x="911" y="59.5">AuthenticationData</text></g></g><g transform="translate(-6,-3) scale(1,1)"><path fill="none" stroke="#000000" d="M 967.5 80 L 967.5 608" stroke-miterlimit="10" stroke-dasharray="3"></path></g><g transform="translate(-6,-3) scale(1,1)"><rect fill="#C0C0C0" stroke="none" x="607" y="47" width="71.736328125" height="39" opacity="0.2"></rect></g><g transform="translate(-6,-3) scale(1,1)"><rect fill="#ffffff" stroke="none" x="600" y="40" width="71.736328125" height="39"></rect></g><g transform="translate(-6,-3) scale(1,1)"><path fill="none" stroke="#000000" d="M 600 40 L 671.736328125 40 L 671.736328125 79 L 600 79 L 600 40 Z Z" stroke-miterlimit="10"></path></g><g transform="translate(-6,-3) scale(1,1)"><g><path fill="none" stroke="none"></path><text fill="#000000" stroke="none" font-family="Arial" font-size="13px" font-style="normal" font-weight="bold" text-decoration="none" x="611.8681640625" y="59.5">Register</text></g></g><g transform="translate(-6,-3) scale(1,1)"><path fill="none" stroke="#000000" d="M 636.5 80 L 636.5 608" stroke-miterlimit="10" stroke-dasharray="3"></path></g><g transform="translate(-6,-3) scale(1,1)"><path fill="none" stroke="#000000" d="M 88 120 L 260 120" stroke-miterlimit="10"></path></g><g transform="translate(-6,-3) scale(1,1)"><path fill="#000000" stroke="none" d="M 249.83732514237585 124.20951775601598 L 260 120 L 249.83732514237585 115.79048224398402"></path></g><g transform="translate(-6,-3) scale(1,1)"><path fill="none" stroke="#000000" d="M 249.83732514237585 124.20951775601598 L 260 120 L 249.83732514237585 115.79048224398402 L 249.83732514237585 124.20951775601598" stroke-miterlimit="10"></path></g><g transform="translate(-6,-3) scale(1,1)"><g><path fill="none" stroke="none"></path><text fill="#000000" stroke="none" font-family="Arial" font-size="13px" font-style="normal" font-weight="normal" text-decoration="none" x="100" y="117">1 : sendRegistration(user)</text></g></g><g transform="translate(-6,-3) scale(1,1)"><rect fill="#ffffff" stroke="none" x="260" y="120" width="13" height="248"></rect></g><g transform="translate(-6,-3) scale(1,1)"><path fill="none" stroke="#000000" d="M 260 120 L 273 120 L 273 368 L 260 368 L 260 120 Z Z" stroke-miterlimit="10"></path></g><g transform="translate(-6,-3) scale(1,1)"><path fill="none" stroke="#000000" d="M 273 128 L 446 128" stroke-miterlimit="10"></path></g><g transform="translate(-6,-3) scale(1,1)"><path fill="#000000" stroke="none" d="M 435.83732514237585 132.209517756016 L 446 128 L 435.83732514237585 123.79048224398402"></path></g><g transform="translate(-6,-3) scale(1,1)"><path fill="none" stroke="#000000" d="M 435.83732514237585 132.209517756016 L 446 128 L 435.83732514237585 123.79048224398402 L 435.83732514237585 132.209517756016" stroke-miterlimit="10"></path></g><g transform="translate(-6,-3) scale(1,1)"><g><path fill="none" stroke="none"></path><text fill="#000000" stroke="none" font-family="Arial" font-size="13px" font-style="normal" font-weight="normal" text-decoration="none" x="285" y="125">2 : sendRegistration(user)</text></g></g><g transform="translate(-6,-3) scale(1,1)"><rect fill="#ffffff" stroke="none" x="446" y="128" width="13" height="232"></rect></g><g transform="translate(-6,-3) scale(1,1)"><path fill="none" stroke="#000000" d="M 446 128 L 459 128 L 459 360 L 446 360 L 446 128 Z Z" stroke-miterlimit="10"></path></g><g transform="translate(-6,-3) scale(1,1)"><path fill="none" stroke="#000000" d="M 459 137 L 629 137" stroke-miterlimit="10"></path></g><g transform="translate(-6,-3) scale(1,1)"><path fill="#000000" stroke="none" d="M 618.8373251423759 141.209517756016 L 629 137 L 618.8373251423758 132.790482243984"></path></g><g transform="translate(-6,-3) scale(1,1)"><path fill="none" stroke="#000000" d="M 618.8373251423759 141.209517756016 L 629 137 L 618.8373251423758 132.790482243984 L 618.8373251423759 141.209517756016" stroke-miterlimit="10"></path></g><g transform="translate(-6,-3) scale(1,1)"><g><path fill="none" stroke="none"></path><text fill="#000000" stroke="none" font-family="Arial" font-size="13px" font-style="normal" font-weight="normal" text-decoration="none" x="466" y="132">3 : forwardTo(bundle) : void</text></g></g><g transform="translate(-6,-3) scale(1,1)"><rect fill="#ffffff" stroke="none" x="629" y="137" width="13" height="375"></rect></g><g transform="translate(-6,-3) scale(1,1)"><path fill="none" stroke="#000000" d="M 629 137 L 642 137 L 642 512 L 629 512 L 629 137 Z Z" stroke-miterlimit="10"></path></g><g transform="translate(-6,-3) scale(1,1)"><path fill="none" stroke="#000000" d="M 629 298 L 459 298" stroke-miterlimit="10" stroke-dasharray="3"></path></g><g transform="translate(-6,-3) scale(1,1)"><path fill="none" stroke="#000000" d="M 469.16267485762415 293.790482243984 L 459 298 L 469.16267485762415 302.209517756016" stroke-miterlimit="10"></path></g><g transform="translate(-6,-3) scale(1,1)"><g><path fill="none" stroke="none"></path><text fill="#000000" stroke="none" font-family="Arial" font-size="13px" font-style="normal" font-weight="normal" text-decoration="none" x="491" y="315">4 : [res] : [400:err]</text></g></g><g transform="translate(-6,-3) scale(1,1)"><path fill="none" stroke="#000000" d="M 446 344 L 273 344" stroke-miterlimit="10" stroke-dasharray="3"></path></g><g transform="translate(-6,-3) scale(1,1)"><path fill="none" stroke="#000000" d="M 283.16267485762415 339.790482243984 L 273 344 L 283.16267485762415 348.209517756016" stroke-miterlimit="10"></path></g><g transform="translate(-6,-3) scale(1,1)"><g><path fill="none" stroke="none"></path><text fill="#000000" stroke="none" font-family="Arial" font-size="13px" font-style="normal" font-weight="normal" text-decoration="none" x="306" y="361">5 : [res] : [400,err]</text></g></g><g transform="translate(-6,-3) scale(1,1)"><path fill="none" stroke="#000000" d="M 642 440 L 960 440" stroke-miterlimit="10"></path></g><g transform="translate(-6,-3) scale(1,1)"><path fill="#000000" stroke="none" d="M 949.8373251423759 444.209517756016 L 960 440 L 949.8373251423758 435.790482243984"></path></g><g transform="translate(-6,-3) scale(1,1)"><path fill="none" stroke="#000000" d="M 949.8373251423759 444.209517756016 L 960 440 L 949.8373251423758 435.790482243984 L 949.8373251423759 444.209517756016" stroke-miterlimit="10"></path></g><g transform="translate(-6,-3) scale(1,1)"><g><path fill="none" stroke="none"></path><text fill="#000000" stroke="none" font-family="Arial" font-size="13px" font-style="normal" font-weight="normal" text-decoration="none" x="656" y="437">6 : register(firstname, lastname, email,  password)</text></g></g><g transform="translate(-6,-3) scale(1,1)"><rect fill="#ffffff" stroke="none" x="960" y="440" width="13" height="58"></rect></g><g transform="translate(-6,-3) scale(1,1)"><path fill="none" stroke="#000000" d="M 960 440 L 973 440 L 973 498 L 960 498 L 960 440 Z Z" stroke-miterlimit="10"></path></g><g transform="translate(-6,-3) scale(1,1)"><path fill="none" stroke="#000000" d="M 960 479 L 642 479" stroke-miterlimit="10" stroke-dasharray="3"></path></g><g transform="translate(-6,-3) scale(1,1)"><path fill="none" stroke="#000000" d="M 652.1626748576241 474.790482243984 L 642 479 L 652.1626748576241 483.209517756016" stroke-miterlimit="10"></path></g><g transform="translate(-6,-3) scale(1,1)"><g><path fill="none" stroke="none"></path><text fill="#000000" stroke="none" font-family="Arial" font-size="13px" font-style="normal" font-weight="normal" text-decoration="none" x="791" y="496">7 : </text></g></g><g transform="translate(-6,-3) scale(1,1)"><path fill="none" stroke="#000000" d="M 629 496 L 273 496" stroke-miterlimit="10"></path></g><g transform="translate(-6,-3) scale(1,1)"><path fill="#000000" stroke="none" d="M 283.16267485762415 491.790482243984 L 273 496 L 283.16267485762415 500.209517756016"></path></g><g transform="translate(-6,-3) scale(1,1)"><path fill="none" stroke="#000000" d="M 283.16267485762415 491.790482243984 L 273 496 L 283.16267485762415 500.209517756016 L 283.16267485762415 491.790482243984" stroke-miterlimit="10"></path></g><g transform="translate(-6,-3) scale(1,1)"><g><path fill="none" stroke="none"></path><text fill="#000000" stroke="none" font-family="Arial" font-size="13px" font-style="normal" font-weight="normal" text-decoration="none" x="407" y="513">8 : [res] : [200]</text></g></g><g transform="translate(-6,-3) scale(1,1)"><rect fill="#ffffff" stroke="none" x="260" y="496" width="13" height="28"></rect></g><g transform="translate(-6,-3) scale(1,1)"><path fill="none" stroke="#000000" d="M 260 496 L 273 496 L 273 524 L 260 524 L 260 496 Z Z" stroke-miterlimit="10"></path></g></g></svg>