<svg version="1.1" xmlns="http://www.w3.org/2000/svg" xmlns:xlink="http://www.w3.org/1999/xlink" width="972" height="460"><defs></defs><g><g transform="translate(2,2) scale(1,1)"><path fill="none" stroke="#000000" d="M 8 8 L 960 8 L 960 448 L 8 448 L 8 8" stroke-miterlimit="10"></path></g><g transform="translate(2,2) scale(1,1)"><path fill="#ffffff" stroke="none" d="M 8 8 L 8 30 L 197 30 L 208 19 L 208 8 L 8 8"></path></g><g transform="translate(2,2) scale(1,1)"><path fill="none" stroke="#000000" d="M 8 8 L 8 30 L 197 30 L 208 19 L 208 8 L 8 8 L 8 8" stroke-miterlimit="10"></path></g><g transform="translate(2,2) scale(1,1)"><g><path fill="none" stroke="none"></path><text fill="#000000" stroke="none" font-family="Arial" font-size="13px" font-style="normal" font-weight="normal" text-decoration="none" x="79" y="25.5">SequenceDiagram1</text></g></g><g transform="translate(2,2) scale(1,1)"><g><path fill="none" stroke="none"></path><text fill="#000000" stroke="none" font-family="Arial" font-size="13px" font-style="normal" font-weight="bold" text-decoration="none" x="13" y="25.5">interaction</text></g></g><g transform="translate(2,2) scale(1,1)"><rect fill="#C0C0C0" stroke="none" x="47" y="47" width="161" height="39" opacity="0.2"></rect></g><g transform="translate(2,2) scale(1,1)"><rect fill="#ffffff" stroke="none" x="40" y="40" width="161" height="39"></rect></g><g transform="translate(2,2) scale(1,1)"><path fill="none" stroke="#000000" d="M 40 40 L 201 40 L 201 79 L 40 79 L 40 40 Z Z" stroke-miterlimit="10"></path></g><g transform="translate(2,2) scale(1,1)"><g><path fill="none" stroke="none"></path><text fill="#000000" stroke="none" font-family="Arial" font-size="13px" font-style="normal" font-weight="bold" text-decoration="none" x="78" y="59.5">SendRequests</text></g></g><g transform="translate(2,2) scale(1,1)"><path fill="none" stroke="#000000" d="M 121.5 80 L 121.5 448" stroke-miterlimit="10" stroke-dasharray="3"></path></g><g transform="translate(2,2) scale(1,1)"><rect fill="#C0C0C0" stroke="none" x="247" y="47" width="127" height="39" opacity="0.2"></rect></g><g transform="translate(2,2) scale(1,1)"><rect fill="#ffffff" stroke="none" x="240" y="40" width="127" height="39"></rect></g><g transform="translate(2,2) scale(1,1)"><path fill="none" stroke="#000000" d="M 240 40 L 367 40 L 367 79 L 240 79 L 240 40 Z Z" stroke-miterlimit="10"></path></g><g transform="translate(2,2) scale(1,1)"><g><path fill="none" stroke="none"></path><text fill="#000000" stroke="none" font-family="Arial" font-size="13px" font-style="normal" font-weight="bold" text-decoration="none" x="253" y="59.5">CtrlRequestsRole</text></g></g><g transform="translate(2,2) scale(1,1)"><path fill="none" stroke="#000000" d="M 304.5 80 L 304.5 448" stroke-miterlimit="10" stroke-dasharray="3"></path></g><g transform="translate(2,2) scale(1,1)"><rect fill="#C0C0C0" stroke="none" x="431" y="47" width="132" height="39" opacity="0.2"></rect></g><g transform="translate(2,2) scale(1,1)"><rect fill="#ffffff" stroke="none" x="424" y="40" width="132" height="39"></rect></g><g transform="translate(2,2) scale(1,1)"><path fill="none" stroke="#000000" d="M 424 40 L 556 40 L 556 79 L 424 79 L 424 40 Z Z" stroke-miterlimit="10"></path></g><g transform="translate(2,2) scale(1,1)"><g><path fill="none" stroke="none"></path><text fill="#000000" stroke="none" font-family="Arial" font-size="13px" font-style="normal" font-weight="bold" text-decoration="none" x="443.5" y="59.5">RequestsRouter</text></g></g><g transform="translate(2,2) scale(1,1)"><path fill="none" stroke="#000000" d="M 491.5 80 L 491.5 448" stroke-miterlimit="10" stroke-dasharray="3"></path></g><g transform="translate(2,2) scale(1,1)"><rect fill="#C0C0C0" stroke="none" x="607" y="47" width="143" height="39" opacity="0.2"></rect></g><g transform="translate(2,2) scale(1,1)"><rect fill="#ffffff" stroke="none" x="600" y="40" width="143" height="39"></rect></g><g transform="translate(2,2) scale(1,1)"><path fill="none" stroke="#000000" d="M 600 40 L 743 40 L 743 79 L 600 79 L 600 40 Z Z" stroke-miterlimit="10"></path></g><g transform="translate(2,2) scale(1,1)"><g><path fill="none" stroke="none"></path><text fill="#000000" stroke="none" font-family="Arial" font-size="13px" font-style="normal" font-weight="bold" text-decoration="none" x="614" y="59.5">RoleRequestsAdder</text></g></g><g transform="translate(2,2) scale(1,1)"><path fill="none" stroke="#000000" d="M 672.5 80 L 672.5 448" stroke-miterlimit="10" stroke-dasharray="3"></path></g><g transform="translate(2,2) scale(1,1)"><rect fill="#C0C0C0" stroke="none" x="807" y="47" width="74" height="39" opacity="0.2"></rect></g><g transform="translate(2,2) scale(1,1)"><rect fill="#ffffff" stroke="none" x="800" y="40" width="74" height="39"></rect></g><g transform="translate(2,2) scale(1,1)"><path fill="none" stroke="#000000" d="M 800 40 L 874 40 L 874 79 L 800 79 L 800 40 Z Z" stroke-miterlimit="10"></path></g><g transform="translate(2,2) scale(1,1)"><g><path fill="none" stroke="none"></path><text fill="#000000" stroke="none" font-family="Arial" font-size="13px" font-style="normal" font-weight="bold" text-decoration="none" x="813.5" y="59.5">RoleList</text></g></g><g transform="translate(2,2) scale(1,1)"><path fill="none" stroke="#000000" d="M 838.5 80 L 838.5 448" stroke-miterlimit="10" stroke-dasharray="3"></path></g><g transform="translate(2,2) scale(1,1)"><path fill="none" stroke="#000000" d="M 121 120 L 297 120" stroke-miterlimit="10"></path></g><g transform="translate(2,2) scale(1,1)"><path fill="#000000" stroke="none" d="M 286.83732514237585 124.20951775601598 L 297 120 L 286.83732514237585 115.79048224398402"></path></g><g transform="translate(2,2) scale(1,1)"><path fill="none" stroke="#000000" d="M 286.83732514237585 124.20951775601598 L 297 120 L 286.83732514237585 115.79048224398402 L 286.83732514237585 124.20951775601598" stroke-miterlimit="10"></path></g><g transform="translate(2,2) scale(1,1)"><g><path fill="none" stroke="none"></path><text fill="#000000" stroke="none" font-family="Arial" font-size="13px" font-style="normal" font-weight="normal" text-decoration="none" x="150" y="117">1 : addStudent(user)</text></g></g><g transform="translate(2,2) scale(1,1)"><rect fill="#ffffff" stroke="none" x="297" y="120" width="13" height="192"></rect></g><g transform="translate(2,2) scale(1,1)"><path fill="none" stroke="#000000" d="M 297 120 L 310 120 L 310 312 L 297 312 L 297 120 Z Z" stroke-miterlimit="10"></path></g><g transform="translate(2,2) scale(1,1)"><path fill="none" stroke="#000000" d="M 310 168 L 484 168" stroke-miterlimit="10"></path></g><g transform="translate(2,2) scale(1,1)"><path fill="#000000" stroke="none" d="M 473.83732514237585 172.209517756016 L 484 168 L 473.83732514237585 163.790482243984"></path></g><g transform="translate(2,2) scale(1,1)"><path fill="none" stroke="#000000" d="M 473.83732514237585 172.209517756016 L 484 168 L 473.83732514237585 163.790482243984 L 473.83732514237585 172.209517756016" stroke-miterlimit="10"></path></g><g transform="translate(2,2) scale(1,1)"><g><path fill="none" stroke="none"></path><text fill="#000000" stroke="none" font-family="Arial" font-size="13px" font-style="normal" font-weight="normal" text-decoration="none" x="336" y="164">2 : addStudent(user)</text></g></g><g transform="translate(2,2) scale(1,1)"><rect fill="#ffffff" stroke="none" x="484" y="168" width="13" height="56"></rect></g><g transform="translate(2,2) scale(1,1)"><path fill="none" stroke="#000000" d="M 484 168 L 497 168 L 497 224 L 484 224 L 484 168 Z Z" stroke-miterlimit="10"></path></g><g transform="translate(2,2) scale(1,1)"><path fill="none" stroke="#000000" d="M 497 210 L 665 210" stroke-miterlimit="10"></path></g><g transform="translate(2,2) scale(1,1)"><path fill="#000000" stroke="none" d="M 654.8373251423759 214.209517756016 L 665 210 L 654.8373251423758 205.790482243984"></path></g><g transform="translate(2,2) scale(1,1)"><path fill="none" stroke="#000000" d="M 654.8373251423759 214.209517756016 L 665 210 L 654.8373251423758 205.790482243984 L 654.8373251423759 214.209517756016" stroke-miterlimit="10"></path></g><g transform="translate(2,2) scale(1,1)"><g><path fill="none" stroke="none"></path><text fill="#000000" stroke="none" font-family="Arial" font-size="13px" font-style="normal" font-weight="normal" text-decoration="none" x="521" y="207">3 : forwardTo(bundle)</text></g></g><g transform="translate(2,2) scale(1,1)"><rect fill="#ffffff" stroke="none" x="665" y="210" width="13" height="38"></rect></g><g transform="translate(2,2) scale(1,1)"><path fill="none" stroke="#000000" d="M 665 210 L 678 210 L 678 248 L 665 248 L 665 210 Z Z" stroke-miterlimit="10"></path></g><g transform="translate(2,2) scale(1,1)"><path fill="none" stroke="#000000" d="M 678 229 L 831 229" stroke-miterlimit="10"></path></g><g transform="translate(2,2) scale(1,1)"><path fill="#000000" stroke="none" d="M 820.8373251423759 233.209517756016 L 831 229 L 820.8373251423758 224.790482243984"></path></g><g transform="translate(2,2) scale(1,1)"><path fill="none" stroke="#000000" d="M 820.8373251423759 233.209517756016 L 831 229 L 820.8373251423758 224.790482243984 L 820.8373251423759 233.209517756016" stroke-miterlimit="10"></path></g><g transform="translate(2,2) scale(1,1)"><g><path fill="none" stroke="none"></path><text fill="#000000" stroke="none" font-family="Arial" font-size="13px" font-style="normal" font-weight="normal" text-decoration="none" x="702" y="226">4 : add(email,role)</text></g></g><g transform="translate(2,2) scale(1,1)"><rect fill="#ffffff" stroke="none" x="831" y="229" width="13" height="75"></rect></g><g transform="translate(2,2) scale(1,1)"><path fill="none" stroke="#000000" d="M 831 229 L 844 229 L 844 304 L 831 304 L 831 229 Z Z" stroke-miterlimit="10"></path></g><g transform="translate(2,2) scale(1,1)"><path fill="none" stroke="#000000" d="M 831 297 L 310 297" stroke-miterlimit="10" stroke-dasharray="3"></path></g><g transform="translate(2,2) scale(1,1)"><path fill="none" stroke="#000000" d="M 320.16267485762415 292.790482243984 L 310 297 L 320.16267485762415 301.209517756016" stroke-miterlimit="10"></path></g><g transform="translate(2,2) scale(1,1)"><g><path fill="none" stroke="none"></path><text fill="#000000" stroke="none" font-family="Arial" font-size="13px" font-style="normal" font-weight="normal" text-decoration="none" x="560" y="314">5 : </text></g></g></g></svg>